<?xml version="1.0" encoding="UTF-8"?>
<svg width="20px" height="36px" viewBox="0 0 20 36" version="1.1" xmlns="http://www.w3.org/2000/svg" xmlns:xlink="http://www.w3.org/1999/xlink">
    <g stroke="none" stroke-width="1" fill="none" fill-rule="evenodd">
        <path d="M19.13802,0.659894977 C18.7159914,0.23739663 18.1433158,3.55271368e-15 17.546145,3.55271368e-15 C16.9489742,3.55271368e-15 16.3762986,0.23739663 15.95427,0.659894977 L0.659894977,15.94302 C0.23739663,16.3650486 0,16.9377242 0,17.534895 C0,18.1320658 0.23739663,18.7047414 0.659894977,19.12677 L15.95427,34.409895 C16.5179265,35.0021138 17.3584729,35.2419747 18.1497862,35.0364144 C18.9410995,34.830854 19.5586351,34.2122255 19.7627958,33.4205499 C19.9669566,32.6288743 19.7256096,31.7887534 19.132395,31.226145 L5.42989498,17.534895 L19.132395,3.84364498 C19.5556398,3.42236332 19.7940488,2.85010697 19.7951039,2.25293587 C19.796159,1.65576478 19.5597736,1.08266956 19.13802,0.659894977 Z" id="arrow-forward" fill="#FFFFFF" fill-rule="nonzero" transform="translate(9.917067, 17.554375) scale(-1, 1) translate(-9.917067, -17.554375) "></path>
    </g>
</svg>
