<?xml version="1.0" encoding="UTF-8"?>
<svg width="20px" height="36px" viewBox="0 0 20 36" version="1.1" xmlns="http://www.w3.org/2000/svg" xmlns:xlink="http://www.w3.org/1999/xlink">
    <g stroke="none" stroke-width="1" fill="none" fill-rule="evenodd">
        <path d="M19.366875,1.125 C18.9448464,0.702501653 18.3721708,0.465105023 17.775,0.465105023 C17.1778292,0.465105023 16.6051536,0.702501653 16.183125,1.125 L0.88875,16.408125 C0.466251653,16.8301536 0.228855023,17.4028292 0.228855023,18 C0.228855023,18.5971708 0.466251653,19.1698464 0.88875,19.591875 L16.183125,34.875 C16.7467815,35.4672188 17.5873279,35.7070798 18.3786412,35.5015194 C19.1699546,35.295959 19.7874901,34.6773305 19.9916509,33.8856549 C20.1958116,33.0939793 19.9544646,32.2538584 19.36125,31.69125 L5.65875,18 L19.36125,4.30875 C19.7844948,3.88746834 20.0229039,3.31521199 20.0239589,2.71804089 C20.025014,2.1208698 19.7886286,1.54777459 19.366875,1.125 Z" id="arrow-back" fill="#FFFFFF" fill-rule="nonzero"></path>
    </g>
</svg>
