<?xml version="1.0" encoding="UTF-8"?>
<svg width="35px" height="35px" viewBox="0 0 35 35" version="1.1" xmlns="http://www.w3.org/2000/svg" xmlns:xlink="http://www.w3.org/1999/xlink">
    <g stroke="none" stroke-width="1" fill="none" fill-rule="evenodd">
        <path d="M34.1632704,0.862838212 C33.6725684,0.371821652 33.0068448,0.095944961 32.312665,0.095944961 C31.6184851,0.095944961 30.9527615,0.371821652 30.4620596,0.862838212 L17.5113101,13.8135877 L4.56056063,0.862838212 C3.9083292,0.162876215 2.92604335,-0.125253093 1.99905447,0.111483611 C1.0720656,0.348220315 0.348220315,1.0720656 0.111483611,1.99905447 C-0.125253093,2.92604335 0.162876215,3.9083292 0.862838212,4.56056063 L13.8135877,17.5113101 L0.862838212,30.4620596 C0.182407632,31.1186298 -0.0908120625,32.0912519 0.148190589,33.0061005 C0.38719324,33.920949 1.10122418,34.6356536 2.01584699,34.8755188 C2.93046981,35.115384 3.90334911,34.8430815 4.56056063,34.1632704 L17.5113101,21.2125209 L30.4620596,34.1632704 C30.9731127,34.6743235 31.6428888,34.928978 32.3109208,34.928978 C33.3687228,34.9287524 34.322313,34.2915778 34.7273161,33.3143789 C35.1323192,32.3371801 34.9090397,31.212248 34.1615262,30.4638038 L21.2125209,17.5130543 L34.1632704,4.56056063 C35.1834698,3.53909081 35.1834698,1.88430803 34.1632704,0.862838212" id="Path" fill="#FFFFFF" fill-rule="nonzero"></path>
    </g>
</svg>
