<?xml version="1.0" encoding="UTF-8"?>
<svg width="512px" height="512px" viewBox="0 0 512 512" version="1.1" xmlns="http://www.w3.org/2000/svg" xmlns:xlink="http://www.w3.org/1999/xlink">
    <g stroke="none" stroke-width="1" fill="none" fill-rule="evenodd">
        <g>
            <g>
                <rect fill="#935DFF" x="0" y="0" width="512" height="512" rx="114"></rect>
                <path d="M404.452676,291.564493 C406.973046,274.997547 400.492093,240.101214 400.492093,240.101214 C400.492093,240.101214 401.572252,237.633797 401.932305,229.879056 C402.292358,222.124315 397.61167,216.132016 397.61167,213.664598 C397.61167,211.197181 403.372517,199.917558 402.292358,196.040187 C401.212199,192.515305 389.690505,182.38207 383.209551,184.144512 C376.728598,185.906953 362.686533,188.990423 352.244997,176.300847 C341.803461,163.258783 318.400019,163.020981 318.400019,163.020981 C318.400019,163.020981 317.679913,154.09409 313.719331,149.159255 C309.758748,144.22442 289.23573,136.822167 286.355306,152.331649 C283.474883,168.193618 282.754747,204.095946 236.667969,246.394531 C201.382779,278.823447 146.654759,270.415201 127.2119,271.120177 C121.090999,271.472665 115.330152,274.645059 112.089676,279.932382 L102.368246,296.499328 C96.6073985,296.851817 99.4878221,305.311534 99.4878221,310.951345 C99.4878221,316.591157 97.6875574,313.418763 98.0476103,323.288433 C98.4076633,333.510591 112.089676,343.732749 125.771688,351.135002 L127.2119,351.135002 C156.016136,371.579318 211.824344,368.178642 226.946569,367.121177 C242.068793,366.063713 264.477823,362.767113 279.9601,351.135002 C295.442378,339.502891 318.400019,351.135002 318.400019,351.135002 L332.200614,364.882042 C332.200614,364.882042 365.927009,364.882042 383.209551,362.062136 C400.13204,359.242231 410.213523,350.430025 413.454,332.100638 C416.694476,313.771251 404.452676,291.564493 404.452676,291.564493 Z" fill="#FFFFFF" fill-rule="nonzero"></path>
            </g>
        </g>
    </g>
</svg>
