<?xml version="1.0" encoding="UTF-8"?>
<svg width="166px" height="19px" viewBox="0 0 166 19" version="1.1" xmlns="http://www.w3.org/2000/svg" xmlns:xlink="http://www.w3.org/1999/xlink">
    <g stroke="none" stroke-width="1" fill="none" fill-rule="evenodd">
        <g fill="#935DFF" fill-rule="nonzero">
            <g>
                <path d="M23.9277735,12.0591955 C24.1245636,10.7144324 23.6185319,7.88184641 23.6185319,7.88184641 C23.6185319,7.88184641 23.7028705,7.68156255 23.7309834,7.052099 C23.7590963,6.42263545 23.3936289,5.93623179 23.3936289,5.73594793 C23.3936289,5.53566407 23.8434349,4.62008072 23.7590963,4.30534895 C23.6747577,4.01922915 22.7751457,3.19669979 22.2691139,3.33975969 C21.7630822,3.48281959 20.6666801,3.73310935 19.8514067,2.70307808 C19.0361334,1.64443483 17.2087965,1.62513209 17.2087965,1.62513209 C17.2087965,1.62513209 17.1525708,0.90052336 16.8433292,0.499955644 C16.5340876,0.0993879282 14.9316537,-0.501463646 14.7067507,0.757463462 C14.4818477,2.04500255 13.6665744,3.84755727 10.0681264,7.28099484 C7.31306475,9.91329697 3.79895545,10.3424767 2.28086023,10.3997006 C1.80294137,10.4283126 1.35313538,10.6858204 1.10011951,11.1150001 L0.341071898,12.4597632 C-0.108734093,12.4883751 0.116168902,13.1750627 0.116168902,13.6328543 C0.116168902,14.090646 -0.0243954695,13.8331382 0.00371740488,14.6342736 C0.0318302793,15.464021 1.10011951,16.2937684 2.16840873,16.89462 L2.28086023,16.89462 C4.52989018,18.5541148 8.88738572,18.278077 10.0681264,18.1922411 C11.2488672,18.1064052 12.9985605,17.8388154 14.2074141,16.89462 C15.4162677,15.9504247 17.2087965,16.89462 17.2087965,16.89462 L18.2863446,18.0104872 C18.2863446,18.0104872 20.919696,18.0104872 22.2691139,17.7815914 C23.590419,17.5526956 24.3775795,16.8373961 24.6305954,15.3495731 C24.8836113,13.8617502 23.9277735,12.0591955 23.9277735,12.0591955 Z" id="Path"></path>
            </g>
            <g transform="translate(31.000000, 2.000000)">
                <g transform="translate(0.705693, 0.773362)" id="Shape">
                    <path d="M4.06736842,14.5633727 L4.06736842,8.96236627 L9.16829903,8.96236627 L9.16829903,14.5633727 L12.701099,14.5633727 L12.701099,0.984083781 L9.16829903,0.984083781 L9.16829903,6.22489689 L4.06736842,6.22489689 L4.06736842,0.984083781 L0.534568421,0.984083781 L0.534568421,14.5633727 L4.06736842,14.5633727 Z M19.0817684,14.5633727 L19.0817684,0.984083781 L15.5489684,0.984083781 L15.5489684,14.5633727 L19.0817684,14.5633727 Z M25.4624378,14.5633727 L25.4624378,8.6742116 L30.0586827,14.5633727 L34.6369031,14.5633727 L28.742895,7.41353491 L34.1322174,0.984083781 L29.7702909,0.984083781 L25.4624378,6.58509023 L25.4624378,0.984083781 L21.9296378,0.984083781 L21.9296378,14.5633727 L25.4624378,14.5633727 Z M43.9375398,14.5633727 L43.9375398,11.573768 L39.7378337,11.573768 L39.7378337,9.23251128 L43.7032215,9.23251128 L43.7032215,6.24290655 L39.7378337,6.24290655 L39.7378337,3.97368851 L43.9375398,3.97368851 L43.9375398,0.984083781 L36.2050337,0.984083781 L36.2050337,14.5633727 L43.9375398,14.5633727 Z M48.948348,14.5633727 L49.7594501,12.2041063 L54.8063072,12.2041063 L55.6174092,14.5633727 L59.3845276,14.5633727 L54.211499,0.984083781 L50.3542582,0.984083781 L45.1812296,14.5633727 L48.948348,14.5633727 Z M53.8690337,9.52066595 L50.6967235,9.52066595 L52.2828786,5.00023953 L53.8690337,9.52066595 Z M64.4674337,14.5633727 L64.4674337,9.34056928 L67.8380133,14.5633727 L72.2359888,14.5633727 L67.9641847,8.99838561 C68.9375072,8.77026316 69.6735072,8.33502954 70.1721847,7.69268475 C70.6708623,7.05033996 70.9202011,6.21289044 70.9202011,5.1803362 C70.9202011,4.60402685 70.8270745,4.06373684 70.6408215,3.55946617 C70.4545684,3.05519549 70.1781929,2.61095704 69.811695,2.22675081 C69.445197,1.84254458 68.9795643,1.53938185 68.414797,1.31726262 C67.8500296,1.09514339 67.1891317,0.984083781 66.4321031,0.984083781 L66.4321031,0.984083781 L60.9346337,0.984083781 L60.9346337,14.5633727 L64.4674337,14.5633727 Z M65.1343398,7.05334157 L64.4674337,7.05334157 L64.4674337,3.7035435 L65.1343398,3.7035435 C65.8312868,3.7035435 66.3660133,3.84762084 66.7385194,4.13577551 C67.1110256,4.42393018 67.2972786,4.83815252 67.2972786,5.37844253 C67.2972786,5.91873255 67.1110256,6.33295489 66.7385194,6.62110956 C66.3660133,6.90926423 65.8312868,7.05334157 65.1343398,7.05334157 L65.1343398,7.05334157 Z M80.6173766,14.9415757 C81.7108623,14.9415757 82.7202337,14.7584774 83.6454909,14.3922809 C84.570748,14.0260843 85.3668296,13.518812 86.0337358,12.870464 C86.7006419,12.222116 87.220348,11.4627084 87.5928541,10.5922411 C87.9653603,9.7217739 88.1516133,8.7822696 88.1516133,7.77372825 C88.1516133,6.7651869 87.9653603,5.8256826 87.5928541,4.95521536 C87.220348,4.08474812 86.7006419,3.32534049 86.0337358,2.67699248 C85.3668296,2.02864447 84.570748,1.52137218 83.6454909,1.15517562 C82.7202337,0.788979055 81.7108623,0.605880773 80.6173766,0.605880773 C79.5118745,0.605880773 78.499499,0.788979055 77.5802501,1.15517562 C76.6610011,1.52137218 75.8709276,2.02864447 75.2100296,2.67699248 C74.5491317,3.32534049 74.0324296,4.08474812 73.6599235,4.95521536 C73.2874174,5.8256826 73.1011643,6.7651869 73.1011643,7.77372825 C73.1011643,8.7822696 73.2874174,9.7217739 73.6599235,10.5922411 C74.0324296,11.4627084 74.5491317,12.222116 75.2100296,12.870464 C75.8709276,13.518812 76.6610011,14.0260843 77.5802501,14.3922809 C78.499499,14.7584774 79.5118745,14.9415757 80.6173766,14.9415757 Z M80.6173766,11.519739 C80.1006745,11.519739 79.6110092,11.426689 79.1483807,11.2405892 C78.6857521,11.0544893 78.2802011,10.7933491 77.9317276,10.4571686 C77.5832541,10.1209882 77.3068786,9.72477551 77.1026011,9.26853061 C76.8983235,8.81228571 76.7961847,8.31401826 76.7961847,7.77372825 C76.7961847,7.23343824 76.8983235,6.73517078 77.1026011,6.27892589 C77.3068786,5.82268099 77.5832541,5.42646831 77.9317276,5.09028786 C78.2802011,4.75410741 78.6857521,4.49296724 79.1483807,4.30686735 C79.6110092,4.12076745 80.1006745,4.02771751 80.6173766,4.02771751 C81.1340786,4.02771751 81.6237439,4.12076745 82.0863725,4.30686735 C82.5490011,4.49296724 82.9575562,4.75410741 83.3120378,5.09028786 C83.6665194,5.42646831 83.945899,5.82268099 84.1501766,6.27892589 C84.3544541,6.73517078 84.4565929,7.23343824 84.4565929,7.77372825 C84.4565929,8.31401826 84.3544541,8.81228571 84.1501766,9.26853061 C83.945899,9.72477551 83.6665194,10.1209882 83.3120378,10.4571686 C82.9575562,10.7933491 82.5490011,11.0544893 82.0863725,11.2405892 C81.6237439,11.426689 81.1340786,11.519739 80.6173766,11.519739 Z M96.3167072,14.9415757 C98.3234337,14.9415757 99.8104541,14.4553147 100.777768,13.4827927 C101.745083,12.5102707 102.22874,10.9674425 102.22874,8.85430827 L102.22874,8.85430827 L102.22874,0.984083781 L98.7139643,0.984083781 L98.7139643,8.36804726 C98.7139643,8.76425994 98.6989439,9.16947744 98.6689031,9.58369979 C98.6388623,9.99792213 98.5457358,10.3731235 98.3895235,10.709304 C98.2333113,11.0454844 97.9959888,11.318631 97.6775562,11.5287438 C97.3591235,11.7388566 96.9055072,11.843913 96.3167072,11.843913 C95.7279072,11.843913 95.2712868,11.7388566 94.946846,11.5287438 C94.6224052,11.318631 94.3850827,11.0454844 94.2348786,10.709304 C94.0846745,10.3731235 93.9945521,9.99792213 93.9645113,9.58369979 C93.9344705,9.16947744 93.9194501,8.76425994 93.9194501,8.36804726 L93.9194501,8.36804726 L93.9194501,0.984083781 L90.3866501,0.984083781 L90.3866501,8.85430827 C90.3866501,10.9674425 90.8733113,12.5102707 91.8466337,13.4827927 C92.8199562,14.4553147 94.3099807,14.9415757 96.3167072,14.9415757 Z M108.609409,14.5633727 L108.609409,6.26091622 L115.134275,14.5633727 L118.64905,14.5633727 L118.64905,0.984083781 L115.134275,0.984083781 L115.134275,9.28654028 L108.609409,0.984083781 L105.076609,0.984083781 L105.076609,14.5633727 L108.609409,14.5633727 Z M126.724021,14.5633727 C127.661295,14.5633727 128.535483,14.3772728 129.346585,14.005073 C130.157687,13.6328733 130.86665,13.1346058 131.473475,12.5102707 C132.080299,11.8859356 132.554944,11.1625473 132.897409,10.3401058 C133.239875,9.51766434 133.411107,8.66220516 133.411107,7.77372825 C133.411107,6.8732449 133.23687,6.01178249 132.888397,5.18934103 C132.539924,4.36689957 132.062275,3.64651289 131.45545,3.02818099 C130.848626,2.40984909 130.139662,1.91458324 129.32856,1.54238346 C128.517458,1.17018367 127.649279,0.984083781 126.724021,0.984083781 L126.724021,0.984083781 L121.496919,0.984083781 L121.496919,14.5633727 L126.724021,14.5633727 Z M125.840821,11.573768 L125.029719,11.573768 L125.029719,3.97368851 L125.840821,3.97368851 C126.441638,3.97368851 126.982373,4.06974006 127.463026,4.26184318 C127.943679,4.45394629 128.34923,4.71808808 128.679679,5.05426853 C129.010128,5.39044898 129.265475,5.79266488 129.445719,6.26091622 C129.625964,6.72916756 129.716087,7.23343824 129.716087,7.77372825 C129.716087,8.3260247 129.628968,8.83329699 129.454732,9.29554511 C129.280495,9.75779323 129.028152,10.1570075 128.697703,10.493188 C128.367254,10.8293684 127.961703,11.0935102 127.48105,11.2856133 C127.000397,11.4777164 126.453654,11.573768 125.840821,11.573768 L125.840821,11.573768 Z"></path>
                </g>
            </g>
        </g>
    </g>
</svg>
