<?xml version="1.0" encoding="UTF-8"?>
<svg width="74px" height="74px" viewBox="0 0 74 74" version="1.1" xmlns="http://www.w3.org/2000/svg" xmlns:xlink="http://www.w3.org/1999/xlink">
    <title>search</title>
    <g id="Page-1" stroke="none" stroke-width="1" fill="none" fill-rule="evenodd">
        <path d="M72,66.3 L54.1,48.4 C63.1,36.7 62.2,19.8 51.4,9.1 C45.5,3.2 37.9,0.3 30.2,0.3 C22.5,0.3 14.9,3.2 9,9.1 C-2.7,20.8 -2.7,39.8 9,51.5 C14.9,57.4 22.5,60.3 30.2,60.3 C36.6,60.3 43,58.3 48.3,54.2 L66.3,72 C67.1,72.8 68.1,73.2 69.2,73.2 C70.2,73.2 71.3,72.8 72.1,72 C73.6,70.5 73.6,67.9 72,66.3 Z M30.3,52.2 C24.4,52.2 19,49.9 14.8,45.8 C6.3,37.3 6.3,23.4 14.8,14.8 C18.9,10.7 24.4,8.4 30.3,8.4 C36.2,8.4 41.6,10.7 45.8,14.8 C50,18.9 52.2,24.4 52.2,30.3 C52.2,36.2 49.9,41.6 45.8,45.8 C41.7,50 36.1,52.2 30.3,52.2 Z" id="search" fill="#7B7B7B" fill-rule="nonzero"></path>
    </g>
</svg>